<svg width="28" height="28" viewBox="0 0 28 28" fill="none" xmlns="http://www.w3.org/2000/svg">
<g clip-path="url(#clip0_594_470)">
<path d="M13.6945 24.5597C13.6945 23.0852 12.4993 21.89 11.0251 21.89C9.55067 21.89 8.35547 23.0852 8.35547 24.5594C8.35547 26.0338 9.55067 27.229 11.0251 27.229C12.4985 27.2275 13.6929 26.0333 13.6945 24.5597ZM9.30233 24.5597C9.30233 23.608 10.0735 22.8369 11.0251 22.8369C11.9765 22.8369 12.7476 23.608 12.7476 24.5594C12.7476 25.511 11.9765 26.2822 11.0251 26.2822C10.074 26.2811 9.30339 25.5105 9.30233 24.5597Z" fill="white"/>
<path d="M20.9096 27.229C22.3841 27.2293 23.5793 26.0341 23.5793 24.5597C23.5795 23.0852 22.3843 21.89 20.9099 21.89C19.4354 21.89 18.2402 23.0852 18.2402 24.5597C18.2421 26.0331 19.436 27.2272 20.9096 27.229ZM20.9096 22.8369C21.861 22.8369 22.6324 23.608 22.6324 24.5594C22.6327 25.5108 21.8612 26.2822 20.9099 26.2822C19.9585 26.2822 19.1871 25.511 19.1871 24.5597C19.1882 23.6088 19.9588 22.8382 20.9096 22.8369Z" fill="white"/>
<path d="M0.473427 1.6909H3.36128C4.31157 1.6872 5.12184 2.37911 5.26662 3.31857L7.55265 17.7589C7.76849 19.1591 8.97636 20.1908 10.3932 20.1852H24.5236C24.7849 20.1852 24.9971 19.9731 24.9971 19.7118C24.9971 19.4502 24.7849 19.2384 24.5236 19.2384H10.3932C9.44292 19.2421 8.63265 18.5499 8.48788 17.6107L8.09926 15.1556H22.5713C23.7966 15.1551 24.8872 14.3789 25.2887 13.2214L27.9737 5.47224C28.0242 5.32747 28.0012 5.16737 27.9124 5.0424C27.8234 4.91771 27.6797 4.84347 27.5264 4.84347H6.46657L6.20185 3.17036C5.986 1.77015 4.77813 0.738493 3.36128 0.744041H0.473427C0.21188 0.744041 0 0.956185 0 1.21747C0 1.47902 0.21188 1.6909 0.473427 1.6909ZM26.8612 5.79059L24.3942 12.9113C24.1247 13.6877 23.3932 14.2085 22.5713 14.2087H7.9492L6.61636 5.79033L26.8612 5.79059Z" fill="white"/>
</g>
<defs>
<clipPath id="clip0_594_470">
<rect width="28" height="28" fill="white"/>
</clipPath>
</defs>
</svg>
