<svg width="21" height="21" viewBox="0 0 21 21" fill="none" xmlns="http://www.w3.org/2000/svg">
<path d="M15.3155 0H5.6845C2.55001 0 0 2.55001 0 5.6845V15.3156C0 18.4499 2.55001 21 5.6845 21H15.3156C18.4499 21 21 18.4499 21 15.3156V5.6845C21 2.55001 18.4499 0 15.3155 0V0ZM19.7689 15.3156C19.7689 17.7711 17.7711 19.7689 15.3155 19.7689H5.6845C3.22885 19.7689 1.23111 17.7711 1.23111 15.3156V5.6845C1.23111 3.22885 3.22885 1.23111 5.6845 1.23111H15.3156C17.7711 1.23111 19.7689 3.22885 19.7689 5.6845V15.3156Z" fill="white"/>
<path d="M10.4998 4.75797C7.33362 4.75797 4.75781 7.33377 4.75781 10.5C4.75781 13.6662 7.33362 16.242 10.4998 16.242C13.666 16.242 16.2419 13.6662 16.2419 10.5C16.2419 7.33377 13.666 4.75797 10.4998 4.75797ZM10.4998 15.0109C8.01262 15.0109 5.98892 12.9874 5.98892 10.5C5.98892 8.01277 8.01262 5.98907 10.4998 5.98907C12.9872 5.98907 15.0107 8.01277 15.0107 10.5C15.0107 12.9874 12.9872 15.0109 10.4998 15.0109Z" fill="white"/>
<path d="M16.3793 2.71872C15.4436 2.71872 14.6826 3.47991 14.6826 4.41542C14.6826 5.35108 15.4436 6.11228 16.3793 6.11228C17.315 6.11228 18.0762 5.35108 18.0762 4.41542C18.0762 3.47975 17.315 2.71872 16.3793 2.71872ZM16.3793 4.88101C16.1226 4.88101 15.9137 4.67208 15.9137 4.41542C15.9137 4.15859 16.1226 3.94983 16.3793 3.94983C16.6361 3.94983 16.8451 4.15859 16.8451 4.41542C16.8451 4.67208 16.6361 4.88101 16.3793 4.88101Z" fill="white"/>
</svg>
