<svg width="22" height="22" viewBox="0 0 22 22" fill="none" xmlns="http://www.w3.org/2000/svg">
<path fill-rule="evenodd" clip-rule="evenodd" d="M0.6875 10.3125C0.6875 9.9328 0.995304 9.625 1.375 9.625H20.625C21.0047 9.625 21.3125 9.9328 21.3125 10.3125C21.3125 10.6922 21.0047 11 20.625 11H1.375C0.995304 11 0.6875 10.6922 0.6875 10.3125Z" fill="black"/>
<path fill-rule="evenodd" clip-rule="evenodd" d="M15.8125 15.125C16.1922 15.125 16.5 15.4328 16.5 15.8125L16.5 17.875L18.5625 17.875V15.8125C18.5625 15.4328 18.8703 15.125 19.25 15.125C19.6297 15.125 19.9375 15.4328 19.9375 15.8125V17.875C19.9375 18.2397 19.7926 18.5894 19.5348 18.8473C19.2769 19.1051 18.9272 19.25 18.5625 19.25H16.5C16.1353 19.25 15.7856 19.1051 15.5277 18.8473C15.2699 18.5894 15.125 18.2397 15.125 17.875V15.8125C15.125 15.4328 15.4328 15.125 15.8125 15.125Z" fill="black"/>
<path fill-rule="evenodd" clip-rule="evenodd" d="M2.75 15.125C3.1297 15.125 3.4375 15.4328 3.4375 15.8125V17.875H5.5V15.8125C5.5 15.4328 5.8078 15.125 6.1875 15.125C6.5672 15.125 6.875 15.4328 6.875 15.8125V17.875C6.875 18.2397 6.73013 18.5894 6.47227 18.8473C6.21441 19.1051 5.86467 19.25 5.5 19.25H3.4375C3.07283 19.25 2.72309 19.1051 2.46523 18.8473C2.20737 18.5894 2.0625 18.2397 2.0625 17.875V15.8125C2.0625 15.4328 2.3703 15.125 2.75 15.125Z" fill="black"/>
<path fill-rule="evenodd" clip-rule="evenodd" d="M4.8125 13.0625C4.8125 12.6828 5.1203 12.375 5.5 12.375H6.875C7.2547 12.375 7.5625 12.6828 7.5625 13.0625C7.5625 13.4422 7.2547 13.75 6.875 13.75H5.5C5.1203 13.75 4.8125 13.4422 4.8125 13.0625Z" fill="black"/>
<path fill-rule="evenodd" clip-rule="evenodd" d="M14.4375 13.0625C14.4375 12.6828 14.7453 12.375 15.125 12.375H16.5C16.8797 12.375 17.1875 12.6828 17.1875 13.0625C17.1875 13.4422 16.8797 13.75 16.5 13.75H15.125C14.7453 13.75 14.4375 13.4422 14.4375 13.0625Z" fill="black"/>
<path fill-rule="evenodd" clip-rule="evenodd" d="M5.94687 3.4375H16.0559C16.3225 3.43858 16.583 3.51713 16.8058 3.66361C17.0278 3.80957 17.2027 4.01672 17.3095 4.25998C17.3098 4.26082 17.3102 4.26166 17.3106 4.26251L19.8781 10.033C19.9173 10.121 19.9375 10.2162 19.9375 10.3125V15.8125C19.9375 16.1922 19.6297 16.5 19.25 16.5H2.75C2.3703 16.5 2.0625 16.1922 2.0625 15.8125V10.3125C2.0625 10.2162 2.08273 10.121 2.12187 10.033L4.69058 4.25987C4.79733 4.01666 4.97224 3.80955 5.1942 3.66361C5.41697 3.51713 5.67751 3.43858 5.94411 3.43751L5.94687 3.4375ZM5.94964 4.8125L5.94768 4.81699L3.4375 10.4585V15.125H18.5625V10.4585L16.0503 4.8125L5.94964 4.8125Z" fill="black"/>
</svg>
